<?xml version="1.0" standalone="no"?>
<!DOCTYPE svg PUBLIC "-//W3C//DTD SVG 20010904//EN"
 "http://www.w3.org/TR/2001/REC-SVG-20010904/DTD/svg10.dtd">
<svg version="1.0" xmlns="http://www.w3.org/2000/svg"
 width="1351.000000pt" height="1351.000000pt" viewBox="0 0 1351.000000 1351.000000"
 preserveAspectRatio="xMidYMid meet">
<metadata>
Created by potrace 1.14, written by Peter Selinger 2001-2017
</metadata>
<g transform="translate(0.000000,1351.000000) scale(0.100000,-0.100000)"
fill="#000000" stroke="none">
<path d="M8067 12384 c-1 -1 -56 -4 -121 -8 -66 -4 -122 -8 -125 -10 -3 -2
-35 -7 -70 -10 -170 -18 -548 -112 -686 -171 -16 -7 -66 -27 -110 -45 -180
-72 -437 -214 -615 -339 -351 -245 -705 -617 -929 -976 -24 -38 -55 -87 -68
-107 -45 -73 -158 -295 -210 -413 l-52 -119 -273 -2 c-150 -1 -286 -5 -303 -9
-16 -3 -43 -8 -60 -11 -92 -15 -264 -85 -336 -135 -27 -19 -45 -23 -143 -34
-128 -14 -320 -63 -453 -116 -128 -51 -423 -202 -534 -274 -327 -211 -602
-512 -793 -866 -101 -188 -196 -459 -241 -686 -4 -18 -10 -33 -13 -34 -54 -6
-255 -50 -315 -70 -194 -62 -454 -204 -600 -327 -132 -112 -283 -293 -368
-442 -23 -41 -44 -77 -46 -79 -1 -2 -124 -5 -272 -5 l-269 -1 -26 -24 c-44
-42 -27 -109 31 -128 16 -5 126 -8 245 -7 120 0 218 -1 218 -3 0 -2 -9 -32
-21 -67 l-20 -64 -74 -4 c-86 -4 -116 -23 -117 -77 -2 -51 34 -81 98 -81 l52
0 -8 -37 c-54 -246 -42 -570 31 -849 11 -44 22 -87 24 -98 6 -26 35 -107 46
-128 5 -10 9 -22 9 -28 0 -6 22 -58 50 -115 203 -429 558 -746 995 -890 211
-70 463 -96 695 -71 61 6 83 4 118 -9 36 -15 42 -21 43 -49 2 -85 20 -275 35
-369 3 -23 7 -53 9 -67 1 -14 5 -34 8 -45 3 -11 9 -43 12 -71 l6 -51 -43 -18
c-238 -104 -402 -357 -401 -620 1 -284 187 -535 467 -631 92 -32 166 -39 371
-39 160 1 171 -1 185 -20 8 -11 18 -24 22 -30 5 -5 27 -35 50 -65 24 -30 47
-60 53 -66 5 -7 26 -31 45 -55 68 -84 242 -262 335 -340 22 -19 45 -39 50 -45
39 -41 260 -197 400 -282 366 -219 801 -368 1195 -406 30 -3 80 -8 110 -12
114 -11 401 -6 535 11 22 3 63 7 90 10 28 3 57 8 65 10 8 2 30 7 48 10 80 13
99 17 195 41 108 27 322 95 372 119 17 7 55 23 85 35 59 23 210 97 305 150
183 101 357 221 550 383 58 49 305 293 357 353 l35 41 74 -71 c111 -106 314
-266 336 -266 4 0 14 -6 22 -14 36 -31 212 -121 326 -166 106 -42 194 -66 344
-95 77 -14 154 -20 301 -20 196 0 297 11 465 49 156 36 396 128 489 186 26 17
49 30 51 30 3 0 31 17 62 37 235 149 485 402 658 666 21 31 41 57 45 57 4 0
75 -20 156 -45 227 -69 324 -86 504 -88 135 -1 223 4 295 17 11 2 38 6 60 10
134 23 365 118 506 208 132 85 317 258 420 393 52 69 159 223 159 229 0 3 13
27 28 53 87 148 165 393 188 591 2 26 7 58 10 72 6 31 6 342 0 390 -3 19 -7
56 -10 82 -28 231 -114 481 -235 687 -56 94 -152 220 -234 307 l-65 68 15 36
c72 166 144 364 157 435 2 11 9 38 14 60 20 73 49 253 56 340 3 39 14 76 31
107 49 88 87 198 102 298 6 41 6 190 0 240 -22 173 -121 365 -257 500 -45 44
-69 82 -120 185 -35 72 -71 141 -80 155 -10 14 -37 57 -61 95 -63 101 -118
173 -245 321 -138 162 -141 163 -414 348 -118 80 -342 188 -490 236 -74 25
-136 46 -138 46 -4 3 -9 40 -17 124 -9 111 -33 262 -59 380 -18 86 -38 170
-46 200 -51 190 -111 363 -177 520 -53 123 -166 351 -193 391 -11 15 -20 30
-20 33 0 12 -170 265 -236 351 -63 83 -65 88 -48 106 23 26 20 76 -7 105 -19
20 -32 24 -79 24 l-57 0 -66 68 -67 67 68 3 c95 3 110 8 128 43 18 37 12 70
-18 99 -20 18 -35 20 -188 20 l-166 0 -87 69 -86 69 455 0 c393 0 458 2 478
15 47 31 41 112 -10 136 -17 7 -197 11 -595 11 -343 -1 -576 3 -583 9 -21 17
-200 116 -286 158 -182 88 -405 169 -610 221 -110 28 -136 34 -225 48 -22 3
-47 8 -55 9 -8 2 -40 6 -70 10 -30 4 -66 9 -80 11 -66 10 -444 25 -453 18z"/>
<path d="M10865 11288 c-11 -6 -22 -12 -23 -14 -2 -1 -8 -19 -12 -40 -8 -33
-6 -40 20 -65 l28 -29 237 3 c236 2 237 2 256 26 28 35 25 85 -7 110 -25 20
-39 21 -253 21 -147 -1 -233 -4 -246 -12z"/>
</g>
</svg>
